<svg width="16px" height="16px" version="1.1" xmlns="http://www.w3.org/2000/svg" viewBox="0 0 435.09 427.63"><title>example</title><path d="M368.2,339.66v64a15.63,15.63,0,0,1-15.63,15.63H306.34q-12.6,0-17.86,5t-5.25,16.92q0,13.47,5.37,17.7t21.94,4.23h48.09a15.63,15.63,0,0,1,15.63,15.63v90.92a15.63,15.63,0,0,1-15.63,15.63H299.81q-52.52,0-80.3-33.68t-27.78-97.27V286.75q0-61.4,26.26-95.24t73.88-33.83h66.77a15.63,15.63,0,0,1,15.63,15.63v91.55a15.63,15.63,0,0,1-15.63,15.63H313.81q-24.51,0-24.51,21.3,0,12.53,5.84,17.39T315.91,324h36.66A15.63,15.63,0,0,1,368.2,339.66Z" transform="translate(-191.73 -157.67)"/><path d="M552.84,273h60.67a13.31,13.31,0,0,1,13.31,13.31v55.3q0,29.45-6.42,47.46a73.2,73.2,0,0,1-13.48,23.12,13.4,13.4,0,0,0,0,17.46,74.54,74.54,0,0,1,13.62,22.86q6.3,17.23,6.3,45.11V572a13.31,13.31,0,0,1-13.31,13.31H552.84A13.31,13.31,0,0,1,539.53,572V491q0-32.26-16.81-32.27-16.34,0-16.34,27.88V572a13.31,13.31,0,0,1-13.31,13.31H432.39A13.31,13.31,0,0,1,419.08,572V502q0-28.82,7.82-47a83.47,83.47,0,0,1,17.32-25.1,13.26,13.26,0,0,0,.23-18.34,89.19,89.19,0,0,1-17.55-26.42q-7.82-18.8-7.82-47.93V286.27A13.31,13.31,0,0,1,432.39,273h60.68a13.31,13.31,0,0,1,13.31,13.31v65.63q0,12.22,4.67,20t11.9,7.83q16.57,0,16.57-27.88V286.27A13.31,13.31,0,0,1,552.84,273Z" transform="translate(-191.73 -157.67)"/></svg>